<?xml version="1.0" encoding="UTF-8" standalone="no"?>
<!-- Created with Inkscape (http://www.inkscape.org/) -->

<svg
   xmlns:dc="http://purl.org/dc/elements/1.1/"
   xmlns:cc="http://creativecommons.org/ns#"
   xmlns:rdf="http://www.w3.org/1999/02/22-rdf-syntax-ns#"
   xmlns:svg="http://www.w3.org/2000/svg"
   xmlns="http://www.w3.org/2000/svg"
   xmlns:xlink="http://www.w3.org/1999/xlink"
   xmlns:sodipodi="http://sodipodi.sourceforge.net/DTD/sodipodi-0.dtd"
   xmlns:inkscape="http://www.inkscape.org/namespaces/inkscape"
   width="100"
   height="100"
   viewBox="0 0 26.458333 26.458333"
   version="1.1"
   id="svg1238"
   inkscape:version="0.92.3 (2405546, 2018-03-11)"
   sodipodi:docname="foot0.svg"
   inkscape:export-filename="C:\Program Files (x86)\Steam\steamapps\common\Don't Starve Together\mods\SE - Death The Kid\exported\deaththekid\foot\foot-0.png"
   inkscape:export-xdpi="96.199997"
   inkscape:export-ydpi="96.199997">
  <defs
     id="defs1232" />
  <sodipodi:namedview
     id="base"
     pagecolor="#ffffff"
     bordercolor="#666666"
     borderopacity="1.0"
     inkscape:pageopacity="0.0"
     inkscape:pageshadow="2"
     inkscape:zoom="7.8876583"
     inkscape:cx="52.473463"
     inkscape:cy="56.906279"
     inkscape:document-units="mm"
     inkscape:current-layer="layer3"
     showgrid="false"
     inkscape:window-width="1040"
     inkscape:window-height="696"
     inkscape:window-x="-7"
     inkscape:window-y="0"
     inkscape:window-maximized="0"
     inkscape:pagecheckerboard="true"
     units="px" />
  <metadata
     id="metadata1235">
    <rdf:RDF>
      <cc:Work
         rdf:about="">
        <dc:format>image/svg+xml</dc:format>
        <dc:type
           rdf:resource="http://purl.org/dc/dcmitype/StillImage" />
        <dc:title></dc:title>
      </cc:Work>
    </rdf:RDF>
  </metadata>
  <g
     inkscape:label="Template"
     inkscape:groupmode="layer"
     id="layer1"
     transform="translate(0,-270.575)"
     style="display:none">
    <image
       transform="translate(0,197)"
       sodipodi:absref="C:\Program Files (x86)\Steam\steamapps\common\Don't Starve Together\mods\SE - Maka Albarn\exported\makaalbarn\foot\foot-0.png"
       y="73.768845"
       x="1.1662243e-015"
       id="image1912"
       xlink:href="file:///C:/Program%20Files%20(x86)/Steam/steamapps/common/Don't%20Starve%20Together/mods/SE%20-%20Maka%20Albarn/exported/makaalbarn/foot/foot-0.png"
       preserveAspectRatio="none"
       height="26.264492"
       width="26.264492"
       style="opacity:0.4;stroke-width:1.34317374" />
  </g>
  <g
     inkscape:groupmode="layer"
     id="layer3"
     inkscape:label="Export"
     transform="translate(0,-73.575)">
    <path
       style="opacity:1;fill:#1a1a1a;fill-opacity:1;stroke:#1a1a1a;stroke-width:2.48692916;stroke-linecap:round;stroke-linejoin:round;stroke-miterlimit:4;stroke-dasharray:none;stroke-opacity:1;paint-order:normal"
       d="m 43.789009,53.288236 c -2.434175,-0.20713 -4.415821,-0.658525 -5.404713,-1.231128 l -0.39414,-0.228221 0.07285,-1.457974 c 0.07427,-1.486483 0.422289,-3.257259 1.042831,-5.306144 0.340676,-1.124835 1.200374,-3.097082 1.405188,-3.223664 0.06309,-0.03899 0.920361,0.06528 1.905036,0.231715 0.984676,0.166437 2.86596,0.42264 4.180632,0.56934 1.314671,0.1467 2.78967,0.355379 3.277775,0.463732 1.486268,0.329934 1.822881,0.345367 2.098205,0.0962 0.324225,-0.293418 0.333405,-1.081399 0.01595,-1.368694 -0.336194,-0.304251 -1.938662,-0.679862 -3.683318,-0.863351 -0.835822,-0.08791 -1.496315,-0.197628 -1.467762,-0.243828 0.02855,-0.0462 0.409762,-0.122667 0.84713,-0.169924 1.363182,-0.147293 4.323792,-0.586937 4.788795,-0.711125 0.244052,-0.06518 1.241666,-0.690212 2.216919,-1.388961 0.975254,-0.69875 1.892342,-1.270454 2.037975,-1.270454 0.427863,0 2.041699,0.591021 2.802632,1.026382 1.103356,0.631277 2.262281,1.808723 3.224813,3.276347 l 0.87433,1.333142 v 1.419469 1.419469 l -1.109328,0.872452 c -2.390733,1.880238 -4.472616,3.250843 -7.15901,4.713127 -0.973352,0.529823 -0.978815,0.531082 -1.044786,0.240724 -0.03647,-0.160536 -0.0811,-1.445263 -0.09916,-2.854949 -0.03699,-2.886409 -0.07316,-3.002592 -0.934831,-3.002592 -0.336107,0 -0.529778,0.08385 -0.711236,0.307945 -0.23612,0.291596 -0.247032,0.479188 -0.205532,3.533226 l 0.04383,3.225281 -0.380341,0.108175 c -1.545082,0.439449 -5.817177,0.690507 -8.240722,0.484281 z"
       id="path1938"
       inkscape:connector-curvature="0"
       transform="matrix(0.26458333,0,0,0.26458333,0,73.575)" />
    <path
       style="fill:none;stroke:#000000;stroke-width:0.45899999;stroke-linecap:round;stroke-linejoin:round;stroke-miterlimit:4;stroke-dasharray:none;stroke-opacity:1"
       d="M 17.682726,85.427907 C 16.765114,85.048426 16.94422,83.274971 14.480451,83.079228"
       id="path1806-5"
       inkscape:connector-curvature="0"
       sodipodi:nodetypes="cc" />
    <path
       style="fill:none;stroke:#000000;stroke-width:0.459;stroke-linecap:butt;stroke-linejoin:round;stroke-miterlimit:4;stroke-dasharray:none;stroke-opacity:1"
       d="M 14.98,83.079333 13.863497,83.87321"
       id="path1806"
       inkscape:connector-curvature="0"
       sodipodi:nodetypes="cc" />
    <path
       style="fill:none;stroke:#000000;stroke-width:0.45891875;stroke-linecap:round;stroke-linejoin:round;stroke-miterlimit:4;stroke-dasharray:none;stroke-opacity:1"
       d="m 13.863497,83.87321 c -0.699268,0.152029 -2.431795,0.298767 -3.224323,0.475536"
       id="path1806-9"
       inkscape:connector-curvature="0"
       sodipodi:nodetypes="cc" />
    <path
       style="fill:none;stroke:#000000;stroke-width:0.45891875;stroke-linecap:round;stroke-linejoin:round;stroke-miterlimit:4;stroke-dasharray:none;stroke-opacity:1"
       d="m 10.639174,84.348746 c -0.425598,0.323072 -0.9521207,2.354681 -0.8210109,3.044582"
       id="path1806-1"
       inkscape:connector-curvature="0"
       sodipodi:nodetypes="cc" />
    <path
       style="fill:none;stroke:#000000;stroke-width:0.45891875;stroke-linecap:round;stroke-linejoin:round;stroke-miterlimit:4;stroke-dasharray:none;stroke-opacity:1"
       d="M 14.132325,87.663143 C 13.59344,88.050951 10.373203,88.104859 9.8181631,87.393328"
       id="path1806-15"
       inkscape:connector-curvature="0"
       sodipodi:nodetypes="cc" />
    <path
       style="fill:none;stroke:#000000;stroke-width:0.45891875;stroke-linecap:round;stroke-linejoin:round;stroke-miterlimit:4;stroke-dasharray:none;stroke-opacity:1"
       d="m 17.074281,85.781659 c -1.028172,0.851375 -1.839269,1.378491 -2.941956,1.881484"
       id="path1806-2"
       inkscape:connector-curvature="0"
       sodipodi:nodetypes="cc" />
    <path
       style="fill:none;stroke:#000000;stroke-width:0.45891875;stroke-linecap:round;stroke-linejoin:round;stroke-miterlimit:4;stroke-dasharray:none;stroke-opacity:1"
       d="m 17.078936,84.85766 c 0.01912,0.699369 -0.0047,0.923999 -0.0047,0.923999"
       id="path1806-4"
       inkscape:connector-curvature="0"
       sodipodi:nodetypes="cc" />
    <path
       style="fill:none;stroke:#000000;stroke-width:0.45891875;stroke-linecap:round;stroke-linejoin:round;stroke-miterlimit:4;stroke-dasharray:none;stroke-opacity:1"
       d="m 14.098117,85.884286 0.03421,1.778857"
       id="path1806-3"
       inkscape:connector-curvature="0"
       sodipodi:nodetypes="cc" />
    <path
       style="fill:none;stroke:#000000;stroke-width:0.45891878;stroke-linecap:round;stroke-linejoin:round;stroke-miterlimit:4;stroke-dasharray:none;stroke-opacity:1"
       d="m 10.639174,84.348746 c 1.738734,0.354463 2.362455,0.250742 2.945811,0.475067"
       id="path1806-3-9"
       inkscape:connector-curvature="0"
       sodipodi:nodetypes="cc" />
  </g>
</svg>
