<?xml version="1.0" encoding="UTF-8" standalone="no"?>
<!-- Created with Inkscape (http://www.inkscape.org/) -->

<svg
   xmlns:dc="http://purl.org/dc/elements/1.1/"
   xmlns:cc="http://creativecommons.org/ns#"
   xmlns:rdf="http://www.w3.org/1999/02/22-rdf-syntax-ns#"
   xmlns:svg="http://www.w3.org/2000/svg"
   xmlns="http://www.w3.org/2000/svg"
   xmlns:xlink="http://www.w3.org/1999/xlink"
   xmlns:sodipodi="http://sodipodi.sourceforge.net/DTD/sodipodi-0.dtd"
   xmlns:inkscape="http://www.inkscape.org/namespaces/inkscape"
   width="100"
   height="100"
   viewBox="0 0 26.458333 26.458333"
   version="1.1"
   id="svg1238"
   inkscape:version="0.92.3 (2405546, 2018-03-11)"
   sodipodi:docname="foot3.svg"
   inkscape:export-filename="C:\Program Files (x86)\Steam\steamapps\common\Don't Starve Together\mods\SE - Death The Kid\exported\deaththekid\foot\foot-3.png"
   inkscape:export-xdpi="96.199997"
   inkscape:export-ydpi="96.199997">
  <defs
     id="defs1232" />
  <sodipodi:namedview
     id="base"
     pagecolor="#ffffff"
     bordercolor="#666666"
     borderopacity="1.0"
     inkscape:pageopacity="0.0"
     inkscape:pageshadow="2"
     inkscape:zoom="7.4529055"
     inkscape:cx="51.278272"
     inkscape:cy="47.243891"
     inkscape:document-units="mm"
     inkscape:current-layer="layer3"
     showgrid="false"
     inkscape:window-width="1040"
     inkscape:window-height="696"
     inkscape:window-x="-7"
     inkscape:window-y="0"
     inkscape:window-maximized="0"
     inkscape:pagecheckerboard="true"
     units="px" />
  <metadata
     id="metadata1235">
    <rdf:RDF>
      <cc:Work
         rdf:about="">
        <dc:format>image/svg+xml</dc:format>
        <dc:type
           rdf:resource="http://purl.org/dc/dcmitype/StillImage" />
        <dc:title></dc:title>
      </cc:Work>
    </rdf:RDF>
  </metadata>
  <g
     inkscape:label="Template"
     inkscape:groupmode="layer"
     id="layer1"
     transform="translate(0,-270.575)"
     style="display:none">
    <image
       sodipodi:absref="C:\Program Files (x86)\Steam\steamapps\common\Don't Starve Together\mods\SE - Death The Kid\exported\deaththekid\foot\foot-3.png"
       y="270.57553"
       x="0"
       id="image1971"
       xlink:href="file:///C:/Program%20Files%20(x86)/Steam/steamapps/common/Don't%20Starve%20Together/mods/SE%20-%20Death%20The%20Kid/exported/deaththekid/foot/foot-3.png"
       preserveAspectRatio="none"
       height="26.457802"
       width="26.457802"
       style="opacity:0.4" />
  </g>
  <g
     inkscape:groupmode="layer"
     id="layer3"
     inkscape:label="Export"
     transform="translate(0,-73.575)"
     style="display:inline">
    <path
       style="opacity:1;fill:#1a1a1a;fill-opacity:1;stroke:#1a1a1a;stroke-width:0.93354332;stroke-linecap:round;stroke-linejoin:round;stroke-miterlimit:4;stroke-dasharray:none;stroke-opacity:1;paint-order:normal"
       d="m 46.917556,53.805351 c -3.468446,-3.138967 -6.444725,-5.84356 -6.613953,-6.010207 l -0.307687,-0.302994 0.69569,-3.748083 c 0.38263,-2.061445 0.768856,-3.808462 0.85828,-3.882258 0.08942,-0.0738 1.756386,-0.400739 3.70436,-0.726537 l 3.541772,-0.59236 2.060236,1.03631 2.060235,1.03631 -0.08738,0.629457 c -0.04806,0.346202 -0.215081,1.334377 -0.371157,2.195945 l -0.283773,1.566487 -0.837408,-0.303963 c -1.242689,-0.451072 -3.246982,-1.604712 -4.474952,-2.575715 -1.161368,-0.918338 -1.659568,-1.065543 -2.070277,-0.611715 -0.122133,0.134955 -0.222059,0.464438 -0.222059,0.732184 0,0.440194 0.08673,0.555997 0.905687,1.209302 0.498128,0.397369 1.198004,0.91989 1.555281,1.161158 0.845609,0.571035 3.347644,1.813509 4.091637,2.031847 l 0.581779,0.170733 -0.102438,0.612642 c -0.105671,0.631984 1.00428,4.40443 1.100304,4.709727 0.120116,0.381908 1.659157,0.117291 4.495019,-0.0048 3.183152,-0.137084 7.705617,-1.915871 6.98286,-0.127942 l -0.717515,1.774963 0.08018,0.400902 c 0.0441,0.220495 0.08018,0.710744 0.08018,1.089441 v 0.688539 l -5.05106,1.721534 c -2.778084,0.946844 -5.117776,1.745117 -5.199314,1.773938 -0.08154,0.02882 -2.986075,-2.515843 -6.454521,-5.654809 z"
       id="path2022"
       inkscape:connector-curvature="0"
       transform="matrix(0.26458333,0,0,0.26458333,0,73.575)"
       sodipodi:nodetypes="cscscsccccscsscsccscccssccscsccc" />
    <path
       style="fill:none;stroke:#000000;stroke-width:0.45899999;stroke-linecap:round;stroke-linejoin:round;stroke-miterlimit:4;stroke-dasharray:none;stroke-opacity:1"
       d="m 10.309316,86.244301 0.442935,-2.356573 2.173915,-0.376529 1.34674,0.653453"
       id="path1806-5"
       inkscape:connector-curvature="0"
       sodipodi:nodetypes="cccc" />
    <path
       style="fill:none;stroke:#000000;stroke-width:0.45899999;stroke-linecap:round;stroke-linejoin:round;stroke-miterlimit:4;stroke-dasharray:none;stroke-opacity:1"
       d="m 12.024,84.735365 c 0.516806,0.51586 1.638462,1.065683 1.966504,1.015251"
       id="path1806"
       inkscape:connector-curvature="0"
       sodipodi:nodetypes="cc" />
    <path
       style="fill:none;stroke:#000000;stroke-width:0.45891875;stroke-linecap:round;stroke-linejoin:round;stroke-miterlimit:4;stroke-dasharray:none;stroke-opacity:1"
       d="m 13.990504,85.750616 c 0.01516,-0.02847 0.178434,-0.707131 0.282402,-1.585964"
       id="path1806-9"
       inkscape:connector-curvature="0"
       sodipodi:nodetypes="cc" />
    <path
       style="fill:none;stroke:#000000;stroke-width:0.45891875;stroke-linecap:round;stroke-linejoin:round;stroke-miterlimit:4;stroke-dasharray:none;stroke-opacity:1"
       d="m 13.990504,85.750616 c -0.325872,1.419069 0.04902,0.37448 -0.14652,1.620717 m 3.160619,-0.353 c 0.06939,0.218709 0.05334,1.221649 0.12497,1.528659"
       id="path1806-15"
       inkscape:connector-curvature="0"
       sodipodi:nodetypes="cccc" />
    <path
       style="fill:none;stroke:#000000;stroke-width:0.45891875;stroke-linecap:round;stroke-linejoin:round;stroke-miterlimit:4;stroke-dasharray:none;stroke-opacity:1"
       d="m 10.309316,86.244301 c 0.884939,0.79861 2.060093,1.866718 3.712172,3.359819"
       id="path1806-2"
       inkscape:connector-curvature="0"
       sodipodi:nodetypes="cc" />
    <path
       style="fill:none;stroke:#000000;stroke-width:0.45891875;stroke-linecap:round;stroke-linejoin:round;stroke-miterlimit:4;stroke-dasharray:none;stroke-opacity:1"
       d="M 17.129573,88.546988 14.021488,89.60412"
       id="path1806-3"
       inkscape:connector-curvature="0"
       sodipodi:nodetypes="cc" />
    <path
       style="display:inline;fill:none;stroke:#000000;stroke-width:0.45891875;stroke-linecap:round;stroke-linejoin:round;stroke-miterlimit:4;stroke-dasharray:none;stroke-opacity:1"
       d="m 13.944,87.371333 c -0.07886,-0.05197 1.873733,0.317237 3.060603,-0.353"
       id="path1806-9-6"
       inkscape:connector-curvature="0"
       sodipodi:nodetypes="cc" />
  </g>
</svg>
