<?xml version="1.0" encoding="UTF-8" standalone="no"?>
<!-- Created with Inkscape (http://www.inkscape.org/) -->

<svg
   xmlns:dc="http://purl.org/dc/elements/1.1/"
   xmlns:cc="http://creativecommons.org/ns#"
   xmlns:rdf="http://www.w3.org/1999/02/22-rdf-syntax-ns#"
   xmlns:svg="http://www.w3.org/2000/svg"
   xmlns="http://www.w3.org/2000/svg"
   xmlns:xlink="http://www.w3.org/1999/xlink"
   xmlns:sodipodi="http://sodipodi.sourceforge.net/DTD/sodipodi-0.dtd"
   xmlns:inkscape="http://www.inkscape.org/namespaces/inkscape"
   width="100"
   height="100"
   viewBox="0 0 26.458333 26.458333"
   version="1.1"
   id="svg1238"
   inkscape:version="0.92.3 (2405546, 2018-03-11)"
   sodipodi:docname="foot1.svg"
   inkscape:export-filename="C:\Program Files (x86)\Steam\steamapps\common\Don't Starve Together\mods\SE - Death The Kid\exported\deaththekid\foot\foot-1.png"
   inkscape:export-xdpi="96.199997"
   inkscape:export-ydpi="96.199997">
  <defs
     id="defs1232" />
  <sodipodi:namedview
     id="base"
     pagecolor="#ffffff"
     bordercolor="#666666"
     borderopacity="1.0"
     inkscape:pageopacity="0.0"
     inkscape:pageshadow="2"
     inkscape:zoom="7.8876583"
     inkscape:cx="45.486384"
     inkscape:cy="55.024088"
     inkscape:document-units="mm"
     inkscape:current-layer="layer3"
     showgrid="false"
     inkscape:window-width="1040"
     inkscape:window-height="696"
     inkscape:window-x="-7"
     inkscape:window-y="0"
     inkscape:window-maximized="0"
     inkscape:pagecheckerboard="true"
     units="px" />
  <metadata
     id="metadata1235">
    <rdf:RDF>
      <cc:Work
         rdf:about="">
        <dc:format>image/svg+xml</dc:format>
        <dc:type
           rdf:resource="http://purl.org/dc/dcmitype/StillImage" />
        <dc:title></dc:title>
      </cc:Work>
    </rdf:RDF>
  </metadata>
  <g
     inkscape:label="Template"
     inkscape:groupmode="layer"
     id="layer1"
     transform="translate(0,-270.575)"
     style="display:none">
    <image
       sodipodi:absref="C:\Program Files (x86)\Steam\steamapps\common\Don't Starve Together\mods\SE - Death The Kid\exported\deaththekid\foot\foot-1.png"
       y="270.67395"
       x="0"
       id="image1948"
       xlink:href="file:///C:/Program%20Files%20(x86)/Steam/steamapps/common/Don't%20Starve%20Together/mods/SE%20-%20Death%20The%20Kid/exported/deaththekid/foot/foot-1.png"
       preserveAspectRatio="none"
       height="26.359369"
       width="26.359369"
       style="opacity:0.4" />
  </g>
  <g
     inkscape:groupmode="layer"
     id="layer3"
     inkscape:label="Export"
     transform="translate(0,-73.575)"
     style="display:inline">
    <g
       id="g1961"
       transform="rotate(-9.6085229,23.646723,85.768853)"
       style="opacity:1">
      <path
         inkscape:connector-curvature="0"
         id="path1938"
         d="m 15.894303,87.674179 c 0.644042,-0.0548 1.168352,-0.174235 1.429997,-0.325736 l 0.104282,-0.06038 -0.01927,-0.385756 c -0.01965,-0.393299 -0.111731,-0.861817 -0.275916,-1.403917 -0.09014,-0.297613 -0.317599,-0.819437 -0.37179,-0.852928 -0.01669,-0.01032 -0.243512,0.01727 -0.50404,0.06131 -0.260529,0.04404 -0.758286,0.111823 -1.106126,0.150638 -0.34784,0.03881 -0.7381,0.09403 -0.867244,0.122695 -0.393242,0.0873 -0.482304,0.09138 -0.555151,0.02545 -0.08578,-0.07763 -0.08821,-0.28612 -0.0042,-0.362133 0.08895,-0.0805 0.512938,-0.17988 0.974545,-0.228429 0.221144,-0.02326 0.3959,-0.05229 0.388345,-0.06451 -0.0076,-0.01222 -0.108416,-0.03246 -0.224136,-0.04496 -0.360675,-0.03897 -1.144003,-0.155294 -1.267036,-0.188152 -0.06457,-0.01725 -0.328524,-0.182619 -0.586559,-0.367496 -0.258036,-0.184878 -0.500682,-0.336141 -0.539215,-0.336141 -0.113205,0 -0.902965,-0.313294 -1.104295,-0.198105 -0.29193,0.167026 -0.495088,0.462054 -0.749758,0.850363 l 0.22557,1.24792 -0.22557,-1.24792 0.02796,1.590035 0.29351,0.230836 c 0.632548,0.49748 1.183379,0.860119 1.894154,1.247015 0.257533,0.140182 0.258978,0.140516 0.276433,0.06369 0.0097,-0.04248 0.02146,-0.382393 0.02624,-0.755372 0.0098,-0.763696 0.01936,-0.794436 0.247341,-0.794436 0.08893,0 0.14017,0.02219 0.188181,0.08148 0.06247,0.07715 0.06536,0.126785 0.05438,0.934833 l -0.0116,0.853355 0.100632,0.02862 c 0.408803,0.116271 1.539128,0.182696 2.180357,0.128132 z"
         style="opacity:1;fill:#1a1a1a;fill-opacity:1;stroke:#1a1a1a;stroke-width:0.65799999;stroke-linecap:round;stroke-linejoin:round;stroke-miterlimit:4;stroke-dasharray:none;stroke-opacity:1;paint-order:normal"
         sodipodi:nodetypes="ccccccsccccccccsscccccccccscccccc" />
      <path
         sodipodi:nodetypes="csc"
         inkscape:connector-curvature="0"
         id="path1806-5"
         d="m 10.208912,85.748317 c 0.221354,-0.308371 0.100977,-1.88254 0.608746,-2.550565 0.30094,-0.39592 0.695998,-0.166026 1.682486,-0.118419"
         style="fill:none;stroke:#000000;stroke-width:0.45899999;stroke-linecap:round;stroke-linejoin:round;stroke-miterlimit:4;stroke-dasharray:none;stroke-opacity:1" />
      <path
         sodipodi:nodetypes="cc"
         inkscape:connector-curvature="0"
         id="path1806"
         d="m 12.500144,83.079333 1.116503,0.793877"
         style="fill:none;stroke:#000000;stroke-width:0.45899999;stroke-linecap:butt;stroke-linejoin:round;stroke-miterlimit:4;stroke-dasharray:none;stroke-opacity:1" />
      <path
         sodipodi:nodetypes="cc"
         inkscape:connector-curvature="0"
         id="path1806-9"
         d="m 13.616647,83.87321 c 0.699268,0.152029 2.431795,0.298767 3.224323,0.475536"
         style="fill:none;stroke:#000000;stroke-width:0.45891875;stroke-linecap:round;stroke-linejoin:round;stroke-miterlimit:4;stroke-dasharray:none;stroke-opacity:1" />
      <path
         sodipodi:nodetypes="cc"
         inkscape:connector-curvature="0"
         id="path1806-1"
         d="m 16.84097,84.348746 c 0.425598,0.323072 0.952121,2.354681 0.821011,3.044582"
         style="fill:none;stroke:#000000;stroke-width:0.45891875;stroke-linecap:round;stroke-linejoin:round;stroke-miterlimit:4;stroke-dasharray:none;stroke-opacity:1" />
      <path
         sodipodi:nodetypes="cc"
         inkscape:connector-curvature="0"
         id="path1806-15"
         d="m 13.347819,87.663143 c 0.538885,0.387808 3.759122,0.441716 4.314162,-0.269815"
         style="fill:none;stroke:#000000;stroke-width:0.45891875;stroke-linecap:round;stroke-linejoin:round;stroke-miterlimit:4;stroke-dasharray:none;stroke-opacity:1" />
      <path
         sodipodi:nodetypes="cc"
         inkscape:connector-curvature="0"
         id="path1806-2"
         d="m 10.405863,85.781659 c 1.028172,0.851375 1.839269,1.378491 2.941956,1.881484"
         style="fill:none;stroke:#000000;stroke-width:0.45891875;stroke-linecap:round;stroke-linejoin:round;stroke-miterlimit:4;stroke-dasharray:none;stroke-opacity:1" />
      <path
         sodipodi:nodetypes="cc"
         inkscape:connector-curvature="0"
         id="path1806-3"
         d="m 13.382027,85.884286 -0.03421,1.778857"
         style="fill:none;stroke:#000000;stroke-width:0.45891875;stroke-linecap:round;stroke-linejoin:round;stroke-miterlimit:4;stroke-dasharray:none;stroke-opacity:1" />
      <path
         sodipodi:nodetypes="cc"
         inkscape:connector-curvature="0"
         id="path1806-3-9"
         d="m 16.84097,84.348746 c -1.738734,0.354463 -2.362455,0.250742 -2.945811,0.475067"
         style="fill:none;stroke:#000000;stroke-width:0.45891878;stroke-linecap:round;stroke-linejoin:round;stroke-miterlimit:4;stroke-dasharray:none;stroke-opacity:1" />
    </g>
  </g>
</svg>
