<?xml version="1.0" encoding="UTF-8" standalone="no"?>
<!-- Created with Inkscape (http://www.inkscape.org/) -->

<svg
   xmlns:dc="http://purl.org/dc/elements/1.1/"
   xmlns:cc="http://creativecommons.org/ns#"
   xmlns:rdf="http://www.w3.org/1999/02/22-rdf-syntax-ns#"
   xmlns:svg="http://www.w3.org/2000/svg"
   xmlns="http://www.w3.org/2000/svg"
   xmlns:xlink="http://www.w3.org/1999/xlink"
   xmlns:sodipodi="http://sodipodi.sourceforge.net/DTD/sodipodi-0.dtd"
   xmlns:inkscape="http://www.inkscape.org/namespaces/inkscape"
   width="100"
   height="100"
   viewBox="0 0 26.458333 26.458333"
   version="1.1"
   id="svg1238"
   inkscape:version="0.92.3 (2405546, 2018-03-11)"
   sodipodi:docname="foot4.svg"
   inkscape:export-filename="C:\Program Files (x86)\Steam\steamapps\common\Don't Starve Together\mods\SE - Death The Kid\exported\deaththekid\foot\foot-4.png"
   inkscape:export-xdpi="96.199997"
   inkscape:export-ydpi="96.199997">
  <defs
     id="defs1232" />
  <sodipodi:namedview
     id="base"
     pagecolor="#ffffff"
     bordercolor="#666666"
     borderopacity="1.0"
     inkscape:pageopacity="0.0"
     inkscape:pageshadow="2"
     inkscape:zoom="5.27"
     inkscape:cx="47.167919"
     inkscape:cy="60.847447"
     inkscape:document-units="mm"
     inkscape:current-layer="layer3"
     showgrid="false"
     inkscape:window-width="1040"
     inkscape:window-height="696"
     inkscape:window-x="-7"
     inkscape:window-y="0"
     inkscape:window-maximized="0"
     inkscape:pagecheckerboard="true"
     units="px" />
  <metadata
     id="metadata1235">
    <rdf:RDF>
      <cc:Work
         rdf:about="">
        <dc:format>image/svg+xml</dc:format>
        <dc:type
           rdf:resource="http://purl.org/dc/dcmitype/StillImage" />
        <dc:title></dc:title>
      </cc:Work>
    </rdf:RDF>
  </metadata>
  <g
     inkscape:label="Template"
     inkscape:groupmode="layer"
     id="layer1"
     transform="translate(0,-270.575)"
     style="display:none">
    <image
       sodipodi:absref="C:\Program Files (x86)\Steam\steamapps\common\Don't Starve Together\mods\SE - Death The Kid\exported\deaththekid\foot\foot-4.png"
       y="270.64194"
       x="0"
       id="image2032"
       xlink:href="file:///C:/Program%20Files%20(x86)/Steam/steamapps/common/Don't%20Starve%20Together/mods/SE%20-%20Death%20The%20Kid/exported/deaththekid/foot/foot-4.png"
       preserveAspectRatio="none"
       height="26.39139"
       width="26.39139"
       style="opacity:0.4" />
  </g>
  <g
     inkscape:groupmode="layer"
     id="layer3"
     inkscape:label="Export"
     transform="translate(0,-73.575)"
     style="display:inline">
    <path
       style="opacity:1;fill:#1a1a1a;fill-opacity:1;stroke:#1a1a1a;stroke-width:1.25102364;stroke-linecap:round;stroke-linejoin:round;stroke-miterlimit:4;stroke-dasharray:none;stroke-opacity:1;paint-order:normal"
       d="m 38.356187,58.876119 c -1.163139,-0.630909 -2.024475,-1.467859 -2.495688,-2.425028 -0.371252,-0.754118 -0.451572,-1.175422 -0.874456,-4.586777 -0.25611,-2.066012 -0.496511,-3.929282 -0.534224,-4.140599 -0.06686,-0.374658 -0.06083,-0.37914 0.242752,-0.180228 1.082442,0.709244 3.125205,1.74157 3.562193,1.800182 0.441577,0.05923 1.50419,-0.316264 7.2486,-2.561417 3.702143,-1.44695 7.283135,-2.78601 7.957759,-2.975689 0.674623,-0.189678 1.382163,-0.425839 1.57231,-0.524801 0.732136,-0.381042 1.310372,-1.308375 1.666714,-2.672958 0.111847,-0.42831 0.232132,-0.807519 0.267301,-0.842688 0.15806,-0.15806 6.257844,3.713395 7.424141,4.712008 l 0.559353,0.478934 -0.573972,0.971643 c -0.315683,0.534404 -0.909963,1.605625 -1.32062,2.380491 -1.046557,1.974736 -1.48407,2.549201 -1.942019,2.549915 -0.202478,3.16e-4 -0.639848,0.184939 -0.971933,0.410272 -1.42216,0.964994 -5.293901,2.729066 -10.532805,4.799036 -6.617199,2.614555 -8.19129,3.210584 -8.265746,3.129818 -0.04456,-0.04834 -0.395225,-1.687932 -0.779256,-3.643545 -0.803958,-4.094021 -0.77117,-3.960354 -1.036562,-4.225745 -0.280956,-0.280957 -1.031721,-0.255991 -1.302589,0.04331 -0.325132,0.359267 -0.289181,0.710398 0.44882,4.383695 0.368984,1.836563 0.670879,3.387908 0.670879,3.447432 0,0.176404 -0.159507,0.123727 -0.990952,-0.327265 z"
       id="path2039"
       inkscape:connector-curvature="0"
       transform="matrix(0.26458333,0,0,0.26458333,0,73.575)" />
    <path
       style="fill:none;stroke:#1a1a1a;stroke-width:0.26458332px;stroke-linecap:butt;stroke-linejoin:miter;stroke-opacity:1"
       d="m 17.454688,85.399177 c -0.476022,0.496523 -0.861359,1.78446 -1.306569,1.88406"
       id="path2037"
       inkscape:connector-curvature="0"
       sodipodi:nodetypes="cc" />
    <path
       style="fill:none;stroke:#000000;stroke-width:0.45899999;stroke-linecap:round;stroke-linejoin:round;stroke-miterlimit:4;stroke-dasharray:none;stroke-opacity:1"
       d="m 8.7764686,85.464746 0.3284041,2.626411 c 0,0 -0.020201,1.165695 1.6455363,1.546693"
       id="path1806-5"
       inkscape:connector-curvature="0"
       sodipodi:nodetypes="ccc" />
    <path
       style="fill:none;stroke:#000000;stroke-width:0.45899999;stroke-linecap:round;stroke-linejoin:round;stroke-miterlimit:4;stroke-dasharray:none;stroke-opacity:1"
       d="m 14.920173,83.602911 c 0.516806,0.51586 1.886967,1.065683 2.534515,1.796266"
       id="path1806"
       inkscape:connector-curvature="0"
       sodipodi:nodetypes="cc" />
    <path
       style="fill:none;stroke:#000000;stroke-width:0.45891875;stroke-linecap:round;stroke-linejoin:round;stroke-miterlimit:4;stroke-dasharray:none;stroke-opacity:1"
       d="m 16.148119,87.283237 c -0.81516,0.664465 -5.001003,2.10622 -5.39771,2.354613"
       id="path1806-9"
       inkscape:connector-curvature="0"
       sodipodi:nodetypes="cc" />
    <path
       style="fill:none;stroke:#000000;stroke-width:0.45891875;stroke-linecap:round;stroke-linejoin:round;stroke-miterlimit:4;stroke-dasharray:none;stroke-opacity:1"
       d="m 14.920173,83.602911 c -0.325872,1.419069 -0.272514,1.118896 -1.249069,1.442115 m -4.8946354,0.41972 c 0.072905,0.271375 1.1663463,0.849773 1.4058984,0.944565"
       id="path1806-15"
       inkscape:connector-curvature="0"
       sodipodi:nodetypes="cccc" />
    <path
       style="fill:none;stroke:#000000;stroke-width:0.45891875;stroke-linecap:round;stroke-linejoin:round;stroke-miterlimit:4;stroke-dasharray:none;stroke-opacity:1"
       d="m 13.671104,85.045026 -3.488737,1.364285"
       id="path1806-2"
       inkscape:connector-curvature="0"
       sodipodi:nodetypes="cc" />
    <path
       style="fill:none;stroke:#000000;stroke-width:0.45891875;stroke-linecap:round;stroke-linejoin:round;stroke-miterlimit:4;stroke-dasharray:none;stroke-opacity:1"
       d="m 10.750409,89.63785 -0.46154,-2.305521"
       id="path1806-3"
       inkscape:connector-curvature="0"
       sodipodi:nodetypes="cc" />
    <path
       style="display:inline;fill:none;stroke:#000000;stroke-width:0.45891875;stroke-linecap:round;stroke-linejoin:round;stroke-miterlimit:4;stroke-dasharray:none;stroke-opacity:1"
       d="M 8.7764686,85.464746 C 10.774937,84.979264 12.107816,84.660169 14.920173,83.602911"
       id="path1806-9-6"
       inkscape:connector-curvature="0"
       sodipodi:nodetypes="cc" />
    <path
       style="opacity:1;fill:#999999;fill-opacity:1;stroke:#999999;stroke-width:0.88062993;stroke-linecap:round;stroke-linejoin:round;stroke-miterlimit:4;stroke-dasharray:none;stroke-opacity:1;paint-order:normal"
       d="m 36.870217,46.595722 c -0.878292,-0.502923 -1.61686,-0.974302 -1.641262,-1.047508 -0.0244,-0.07321 0.786543,-0.336214 1.802101,-0.584461 5.052961,-1.235165 9.642188,-2.599322 14.695168,-4.368169 1.781122,-0.6235 3.257522,-1.114518 3.280889,-1.09115 0.02337,0.02337 -0.08165,0.444387 -0.233368,0.9356 -0.175791,0.569142 -0.38335,0.961615 -0.572191,1.081954 -0.162983,0.103861 -0.900125,0.368081 -1.638092,0.587155 -0.972457,0.288685 -10.439566,3.91378 -13.958232,5.344813 -0.07596,0.0309 -0.856721,-0.35531 -1.735013,-0.858234 z"
       id="path2035"
       inkscape:connector-curvature="0"
       transform="matrix(0.26458333,0,0,0.26458333,0,73.575)" />
  </g>
</svg>
