<?xml version="1.0" encoding="UTF-8" standalone="no"?>
<!-- Created with Inkscape (http://www.inkscape.org/) -->

<svg
   xmlns:dc="http://purl.org/dc/elements/1.1/"
   xmlns:cc="http://creativecommons.org/ns#"
   xmlns:rdf="http://www.w3.org/1999/02/22-rdf-syntax-ns#"
   xmlns:svg="http://www.w3.org/2000/svg"
   xmlns="http://www.w3.org/2000/svg"
   xmlns:xlink="http://www.w3.org/1999/xlink"
   xmlns:sodipodi="http://sodipodi.sourceforge.net/DTD/sodipodi-0.dtd"
   xmlns:inkscape="http://www.inkscape.org/namespaces/inkscape"
   width="100"
   height="100"
   viewBox="0 0 26.458333 26.458333"
   version="1.1"
   id="svg1238"
   inkscape:version="0.92.3 (2405546, 2018-03-11)"
   sodipodi:docname="foot5.svg"
   inkscape:export-filename="C:\Program Files (x86)\Steam\steamapps\common\Don't Starve Together\mods\SE - Death The Kid\exported\deaththekid\foot\foot-6.png"
   inkscape:export-xdpi="96.199997"
   inkscape:export-ydpi="96.199997">
  <defs
     id="defs1232" />
  <sodipodi:namedview
     id="base"
     pagecolor="#ffffff"
     bordercolor="#666666"
     borderopacity="1.0"
     inkscape:pageopacity="0.0"
     inkscape:pageshadow="2"
     inkscape:zoom="10.54"
     inkscape:cx="58.784523"
     inkscape:cy="44.318847"
     inkscape:document-units="mm"
     inkscape:current-layer="layer3"
     showgrid="false"
     inkscape:window-width="1040"
     inkscape:window-height="696"
     inkscape:window-x="-7"
     inkscape:window-y="0"
     inkscape:window-maximized="0"
     inkscape:pagecheckerboard="true"
     units="px" />
  <metadata
     id="metadata1235">
    <rdf:RDF>
      <cc:Work
         rdf:about="">
        <dc:format>image/svg+xml</dc:format>
        <dc:type
           rdf:resource="http://purl.org/dc/dcmitype/StillImage" />
        <dc:title></dc:title>
      </cc:Work>
    </rdf:RDF>
  </metadata>
  <g
     inkscape:label="Template"
     inkscape:groupmode="layer"
     id="layer1"
     transform="translate(0,-270.575)"
     style="display:none">
    <image
       sodipodi:absref="C:\Program Files (x86)\Steam\steamapps\common\Don't Starve Together\mods\SE - Death The Kid\exported\deaththekid\foot\foot-5.png"
       y="270.5415"
       x="0"
       id="image2628"
       xlink:href="file:///C:/Program%20Files%20(x86)/Steam/steamapps/common/Don't%20Starve%20Together/mods/SE%20-%20Death%20The%20Kid/exported/deaththekid/foot/foot-5.png"
       preserveAspectRatio="none"
       height="26.491802"
       width="26.491802"
       style="opacity:0.4" />
  </g>
  <g
     inkscape:groupmode="layer"
     id="layer3"
     inkscape:label="Export"
     transform="translate(0,-73.575)"
     style="display:inline">
    <path
       style="opacity:1;fill:#1a1a1a;fill-opacity:1;stroke:#1a1a1a;stroke-width:0.49511812;stroke-linecap:round;stroke-linejoin:round;stroke-miterlimit:4;stroke-dasharray:none;stroke-opacity:1;paint-order:normal"
       d="m 40.188698,47.761686 c 0,-0.04546 -0.0724,-0.696552 -0.160894,-1.44687 -0.174266,-1.477589 -0.228729,-5.155335 -0.0928,-6.266474 0.07564,-0.618288 0.08561,-0.63609 0.434321,-0.775618 1.070915,-0.428495 3.298912,-0.598576 4.658082,-0.355588 0.83916,0.150022 2.025151,0.539977 2.658215,0.874023 0.66983,0.353446 1.520592,1.021008 1.847612,1.449754 l 0.255166,0.334539 -0.364368,0.67513 c -0.538566,0.997901 -1.253575,1.89856 -1.749636,2.203925 -0.365237,0.224833 -0.628569,0.290836 -1.612904,0.404273 -0.64702,0.07456 -1.389873,0.185181 -1.650784,0.245818 -1.120094,0.260314 -2.166527,0.889861 -3.330782,2.003842 -0.751639,0.719182 -0.891229,0.821498 -0.891229,0.653246 z"
       id="path2667"
       inkscape:connector-curvature="0"
       transform="matrix(0.26458333,0,0,0.26458333,0,73.575)" />
    <path
       style="opacity:1;fill:#1a1a1a;fill-opacity:1;stroke:#1a1a1a;stroke-width:1.25102364;stroke-linecap:round;stroke-linejoin:round;stroke-miterlimit:4;stroke-dasharray:none;stroke-opacity:1;paint-order:normal"
       d="M 41.441583,54.866087 C 41.27967,54.240381 41.076495,53.579448 40.990083,53.397348 40.903671,53.215249 40.756466,52.52107 40.66296,51.85473 l -0.170009,-1.211528 0.224742,-0.332068 c 0.374529,-0.553386 1.425623,-1.703894 2.053116,-2.247304 1.086027,-0.9405 1.771578,-1.189602 3.964898,-1.440687 0.443834,-0.05081 1.041557,-0.180261 1.328273,-0.287673 1.073584,-0.402196 2.09717,-1.529436 3.033181,-3.340337 l 0.581333,-1.124707 1.157379,-0.839093 c 2.170042,-1.573267 6.553946,-4.419656 8.842388,-5.741201 l 0.759014,-0.43832 0.827633,0.182279 c 2.570473,0.566124 4.305138,2.010306 5.660301,4.712438 0.525117,1.047059 0.543346,1.089817 1.015403,2.381742 l 0.320759,0.877859 -1.540131,0.771204 c -4.514937,2.260804 -14.617086,7.034108 -19.092314,9.021192 -3.388312,1.504471 -7.537082,3.205208 -7.818776,3.205208 -0.0408,0 -0.206654,-0.511942 -0.368567,-1.137647 z"
       id="path2665"
       inkscape:connector-curvature="0"
       transform="matrix(0.26458333,0,0,0.26458333,0,73.575)" />
    <path
       style="display:inline;fill:none;stroke:#1a1a1a;stroke-width:0.45899999;stroke-linecap:round;stroke-linejoin:round;stroke-miterlimit:4;stroke-dasharray:none;stroke-opacity:1"
       d="m 13.441944,84.559822 c -0.4167,-0.85848 -1.970561,-1.258281 -3.082423,-0.725388"
       id="path1806-5-1"
       inkscape:connector-curvature="0"
       sodipodi:nodetypes="cc" />
    <path
       style="fill:none;stroke:#000000;stroke-width:0.45899999;stroke-linecap:round;stroke-linejoin:round;stroke-miterlimit:4;stroke-dasharray:none;stroke-opacity:1"
       d="m 10.359521,83.834434 c -0.157927,1.398342 -0.0017,1.857884 0.100412,3.062539"
       id="path1806-5"
       inkscape:connector-curvature="0"
       sodipodi:nodetypes="cc" />
    <path
       style="fill:none;stroke:#000000;stroke-width:0.45899999;stroke-linecap:round;stroke-linejoin:round;stroke-miterlimit:4;stroke-dasharray:none;stroke-opacity:1"
       d="m 13.441944,84.559822 c -0.971956,2.162979 -1.370802,0.06907 -2.982011,2.337151"
       id="path1806"
       inkscape:connector-curvature="0"
       sodipodi:nodetypes="cc" />
    <path
       style="fill:none;stroke:#000000;stroke-width:0.45891875;stroke-linecap:round;stroke-linejoin:round;stroke-miterlimit:4;stroke-dasharray:none;stroke-opacity:1"
       d="M 10.861577,88.704374 C 10.459933,86.896973 10.685429,88.601189 10.459933,86.896973"
       id="path1806-9"
       inkscape:connector-curvature="0"
       sodipodi:nodetypes="cc" />
    <path
       style="fill:none;stroke:#000000;stroke-width:0.45891875;stroke-linecap:round;stroke-linejoin:round;stroke-miterlimit:4;stroke-dasharray:none;stroke-opacity:1"
       d="m 10.861577,88.704374 c 1.272174,-0.286095 7.415578,-3.316982 8.02985,-3.618755"
       id="path1806-2"
       inkscape:connector-curvature="0"
       sodipodi:nodetypes="cc" />
    <path
       style="fill:none;stroke:#000000;stroke-width:0.45891875;stroke-linecap:round;stroke-linejoin:round;stroke-miterlimit:4;stroke-dasharray:none;stroke-opacity:1"
       d="m 16.452341,82.550038 c 1.580578,0.162928 2.0402,1.322261 2.439086,2.535581"
       id="path1806-3"
       inkscape:connector-curvature="0"
       sodipodi:nodetypes="cc" />
    <path
       style="display:inline;fill:none;stroke:#000000;stroke-width:0.45891875;stroke-linecap:round;stroke-linejoin:round;stroke-miterlimit:4;stroke-dasharray:none;stroke-opacity:1"
       d="m 13.441944,84.559822 c -0.07886,-0.05197 1.823527,-1.339547 3.010397,-2.009784"
       id="path1806-9-6"
       inkscape:connector-curvature="0"
       sodipodi:nodetypes="cc" />
  </g>
</svg>
