<?xml version="1.0" encoding="UTF-8" standalone="no"?>
<!-- Created with Inkscape (http://www.inkscape.org/) -->

<svg
   xmlns:osb="http://www.openswatchbook.org/uri/2009/osb"
   xmlns:dc="http://purl.org/dc/elements/1.1/"
   xmlns:cc="http://creativecommons.org/ns#"
   xmlns:rdf="http://www.w3.org/1999/02/22-rdf-syntax-ns#"
   xmlns:svg="http://www.w3.org/2000/svg"
   xmlns="http://www.w3.org/2000/svg"
   xmlns:xlink="http://www.w3.org/1999/xlink"
   xmlns:sodipodi="http://sodipodi.sourceforge.net/DTD/sodipodi-0.dtd"
   xmlns:inkscape="http://www.inkscape.org/namespaces/inkscape"
   width="160"
   height="120"
   viewBox="0 0 42.333332 31.750001"
   version="1.1"
   id="svg3734"
   inkscape:version="0.92.3 (2405546, 2018-03-11)"
   sodipodi:docname="torso4.svg"
   inkscape:export-filename="C:\Program Files (x86)\Steam\steamapps\common\Don't Starve Together\mods\SE - Death The Kid\exported\deaththekid\torso\torso-3.png"
   inkscape:export-xdpi="96"
   inkscape:export-ydpi="96">
  <defs
     id="defs3728">
    <inkscape:path-effect
       effect="powerstroke"
       id="path-effect2903"
       is_visible="true"
       offset_points="0,0.13229166"
       sort_points="true"
       interpolator_type="CubicBezierJohan"
       interpolator_beta="0.2"
       start_linecap_type="zerowidth"
       linejoin_type="extrp_arc"
       miter_limit="4"
       end_linecap_type="zerowidth" />
    <inkscape:path-effect
       effect="powerstroke"
       id="path-effect2899"
       is_visible="true"
       offset_points="0,0.13229166"
       sort_points="true"
       interpolator_type="CubicBezierJohan"
       interpolator_beta="0.2"
       start_linecap_type="zerowidth"
       linejoin_type="extrp_arc"
       miter_limit="4"
       end_linecap_type="zerowidth" />
    <inkscape:path-effect
       effect="powerstroke"
       id="path-effect2895"
       is_visible="true"
       offset_points="0,0.13229166"
       sort_points="true"
       interpolator_type="CubicBezierJohan"
       interpolator_beta="0.2"
       start_linecap_type="zerowidth"
       linejoin_type="extrp_arc"
       miter_limit="4"
       end_linecap_type="zerowidth" />
    <linearGradient
       id="linearGradient4548"
       osb:paint="solid">
      <stop
         style="stop-color:#000000;stop-opacity:1;"
         offset="0"
         id="stop4546" />
    </linearGradient>
    <filter
       style="color-interpolation-filters:sRGB"
       id="filter947"
       inkscape:label="filter0">
      <feTurbulence
         id="feTurbulence951"
         baseFrequency="0.53100000000000003"
         result="result1"
         numOctaves="3.7966101694915255" />
      <feDisplacementMap
         id="feDisplacementMap953"
         numOctaves="4"
         scale="9"
         xChannelSelector="R"
         yChannelSelector="G" />
    </filter>
  </defs>
  <sodipodi:namedview
     id="base"
     pagecolor="#ffffff"
     bordercolor="#666666"
     borderopacity="1.0"
     inkscape:pageopacity="0"
     inkscape:pageshadow="2"
     inkscape:zoom="6.3168206"
     inkscape:cx="77.378678"
     inkscape:cy="65.815809"
     inkscape:document-units="mm"
     inkscape:current-layer="layer2"
     showgrid="false"
     units="px"
     inkscape:pagecheckerboard="true"
     borderlayer="false"
     inkscape:window-width="1366"
     inkscape:window-height="705"
     inkscape:window-x="-8"
     inkscape:window-y="-8"
     inkscape:window-maximized="1"
     inkscape:snap-smooth-nodes="false"
     inkscape:snap-midpoints="false"
     inkscape:snap-page="false"
     inkscape:snap-to-guides="true"
     inkscape:snap-grids="true" />
  <metadata
     id="metadata3731">
    <rdf:RDF>
      <cc:Work
         rdf:about="">
        <dc:format>image/svg+xml</dc:format>
        <dc:type
           rdf:resource="http://purl.org/dc/dcmitype/StillImage" />
        <dc:title></dc:title>
      </cc:Work>
    </rdf:RDF>
  </metadata>
  <g
     inkscape:label="Layer 1"
     inkscape:groupmode="layer"
     id="layer1"
     transform="translate(0,-265.24999)"
     style="display:none"
     sodipodi:insensitive="true">
    <image
       sodipodi:absref="C:\Program Files (x86)\Steam\steamapps\common\Don't Starve Together\mods\SE - Death The Kid\exported\deaththekid\torso\torso-4.png"
       y="265.29227"
       x="0.069293581"
       id="image3805"
       xlink:href="file:///C:/Program%20Files%20(x86)/Steam/steamapps/common/Don't%20Starve%20Together/mods/SE%20-%20Death%20The%20Kid/exported/deaththekid/torso/torso-4.png"
       preserveAspectRatio="none"
       height="31.75"
       width="42.333332"
       style="opacity:0.4" />
  </g>
  <g
     inkscape:groupmode="layer"
     id="layer2"
     inkscape:label="MyDrawing"
     style="display:inline">
    <path
       style="opacity:1;fill:#1a1a1a;fill-opacity:1;stroke:#1a1a1a;stroke-width:5.43118095;stroke-linecap:round;stroke-linejoin:bevel;stroke-miterlimit:4;stroke-dasharray:none;stroke-opacity:1;paint-order:normal"
       d="m 68.573874,100.2339 c -0.0056,-0.844546 -3.421042,-7.429637 -5.02205,-9.682805 -1.941854,-2.732856 -6.05292,-6.921122 -10.172561,-10.363587 -1.654313,-1.382379 -3.037498,-2.528013 -3.073744,-2.545845 -0.144472,-0.07109 5.288513,-16.347496 6.39597,-19.161367 2.600942,-6.608581 8.880786,-17.638556 9.975603,-17.521241 0.261207,0.02799 0.924864,0.150036 1.474792,0.271213 l 0.99987,0.220322 0.730576,-2.268364 c 0.588522,-1.827303 0.649392,-2.318537 0.313054,-2.526406 -0.336294,-0.207841 -0.341457,-0.400167 -0.02654,-0.988598 0.365502,-0.682948 0.417497,-0.694292 0.79788,-0.174088 0.388174,0.530859 0.488246,0.530824 2.174627,-7.6e-4 0.972251,-0.306476 1.767728,-0.719543 1.767728,-0.917928 0,-0.198385 -0.230154,-1.036164 -0.511453,-1.861732 -0.500817,-1.469818 -0.496402,-1.517052 0.212326,-2.271458 0.892569,-0.950096 1.201575,-0.756037 0.500323,0.314209 -0.808504,1.233933 -0.642645,1.569265 1.230586,2.487984 0.961618,0.471622 1.80344,0.857494 1.870716,0.857494 0.19048,0 3.663032,-6.300584 3.663032,-6.64619 0,-0.168962 -0.645529,-0.63527 -1.434509,-1.03624 l -1.434508,-0.729038 0.948822,-0.909029 0.948822,-0.909029 0.347439,0.919615 c 3.505013,9.277192 6.576963,13.996496 13.984554,21.48385 2.403399,2.42928 4.369818,4.673289 4.369818,4.986686 0,0.724112 0.07641,0.73261 -3.467136,-0.385624 -1.645717,-0.519339 -3.030765,-0.944252 -3.077884,-0.944252 -0.223125,0 -1.416124,4.489762 -1.284146,4.832794 0.08281,0.215244 1.52206,0.802826 3.19833,1.30574 1.676268,0.502911 3.046967,1.072818 3.045995,1.26646 -0.0036,0.717427 -0.669426,2.726685 -0.903569,2.726685 -0.133285,0 -1.508167,-0.427877 -3.05529,-0.950839 -1.547123,-0.522959 -2.924129,-0.839657 -3.060017,-0.703769 -0.300126,0.300126 -1.527962,3.810971 -1.527962,4.369018 0,0.224122 1.422244,0.876108 3.245304,1.487713 l 3.245303,1.088744 -0.102333,1.229894 c -0.05628,0.676442 -0.146346,1.273907 -0.200139,1.3277 -0.05379,0.05379 -1.46897,-0.250373 -3.144838,-0.675919 -1.894643,-0.481103 -3.119848,-0.655912 -3.239557,-0.46222 -0.300392,0.486045 -1.062259,3.50653 -1.066442,4.227988 -0.0033,0.560424 0.436248,0.755557 3.241546,1.439208 2.79438,0.680994 3.237188,0.876862 3.186894,1.409674 -0.03212,0.340333 -0.145187,1.278732 -0.251253,2.085331 l -0.19285,1.466538 -2.521335,-0.562036 c -1.386736,-0.30912 -2.589812,-0.451242 -2.673503,-0.315826 -0.380853,0.616231 -1.117635,4.55116 -0.889945,4.75291 0.140248,0.124271 1.181094,0.409367 2.312993,0.633546 3.33362,0.660244 3.333927,0.53849 -0.01,3.962696 -6.528816,6.685554 -16.604999,13.750912 -20.807433,14.590048 -0.761039,0.15197 -1.029755,0.0921 -1.031906,-0.22987 z M 84.094781,43.899893 c 0.211259,-0.880627 0.332433,-1.64796 0.269275,-1.705185 -0.06316,-0.05722 -1.727407,-0.60579 -3.698329,-1.219035 -2.458843,-0.76506 -3.624751,-1.000303 -3.714947,-0.749557 -1.078929,2.999404 -1.091605,3.076631 -0.539763,3.288392 1.748464,0.670949 6.921514,2.206974 7.094009,2.106414 0.113107,-0.06594 0.378497,-0.840401 0.589755,-1.721029 z m -1.996529,-5.762109 c 1.789476,-0.740088 3.254836,-1.529386 3.256356,-1.753996 0.005,-0.730901 -1.265282,-2.916075 -1.695103,-2.916075 -0.356736,0 -6.504201,2.441113 -6.792867,2.697397 -0.163881,0.145497 1.516031,3.318288 1.756948,3.318288 0.12159,0 1.685189,-0.605527 3.474666,-1.345614 z"
       id="path3986"
       inkscape:connector-curvature="0"
       transform="scale(0.26458333)" />
    <g
       id="g927"
       transform="matrix(-1,0,0,1,43.682873,0)"
       style="opacity:1" />
    <path
       style="opacity:1;fill:none;stroke:#000000;stroke-width:0.26458332px;stroke-linecap:butt;stroke-linejoin:miter;stroke-opacity:1"
       d="m 21.40252,5.7095091 c 1.250794,3.8070707 2.500659,5.1646999 5.669315,8.0678119"
       id="path3650"
       inkscape:connector-curvature="0"
       sodipodi:nodetypes="cc" />
    <path
       style="opacity:1;fill:none;stroke:#000000;stroke-width:0.80000001;stroke-linecap:round;stroke-linejoin:round;stroke-miterlimit:4;stroke-dasharray:none;stroke-opacity:1"
       d="M 21.40252,5.7095091 C 14.470297,12.378233 14.346183,16.54246 12.742342,20.667497 c 3.648665,2.895086 4.198558,4.03998 5.02926,6.103605 0.599846,1.490134 6.741288,-3.400568 7.478884,-4.928211"
       id="path3606"
       inkscape:connector-curvature="0"
       sodipodi:nodetypes="ccsc" />
    <path
       style="opacity:1;fill:none;stroke:#000000;stroke-width:0.80000001;stroke-linecap:round;stroke-linejoin:round;stroke-miterlimit:4;stroke-dasharray:none;stroke-opacity:1"
       d="m 27.896808,10.004149 c -1.248053,3.947974 -2.417494,8.208134 -2.646323,11.838741"
       id="path3608"
       inkscape:connector-curvature="0" />
    <path
       style="opacity:1;fill:none;stroke:#000000;stroke-width:0.80000001;stroke-linecap:butt;stroke-linejoin:miter;stroke-miterlimit:4;stroke-dasharray:none;stroke-opacity:1"
       d="M 21.40252,5.7095091 C 26.434865,3.8816176 33.343602,4.6418206 27.896808,10.004149"
       id="path3612"
       inkscape:connector-curvature="0"
       sodipodi:nodetypes="cc" />
    <ellipse
       style="opacity:1;fill:#cccccc;fill-opacity:1;stroke:#000000;stroke-width:0.1;stroke-linecap:round;stroke-linejoin:round;stroke-miterlimit:4;stroke-dasharray:none;stroke-opacity:1"
       id="path3614"
       cx="29.67598"
       cy="2.1418974"
       rx="1.2291085"
       ry="1.4068135"
       transform="rotate(17.642684)" />
    <path
       style="opacity:1;fill:#cccccc;stroke:#000000;stroke-width:0.1;stroke-linecap:butt;stroke-linejoin:miter;stroke-miterlimit:4;stroke-dasharray:none;stroke-opacity:1"
       d="m 26.578073,11.598455 c -0.28757,2.73093 -0.278769,2.397985 1.055991,0.687469"
       id="path3616"
       inkscape:connector-curvature="0" />
    <path
       style="opacity:1;fill:#cccccc;stroke:#000000;stroke-width:0.1;stroke-linecap:butt;stroke-linejoin:miter;stroke-miterlimit:4;stroke-dasharray:none;stroke-opacity:1"
       d="m 28.503045,11.903001 -1.43121,1.87432 -0.07629,-0.727509"
       id="path3628"
       inkscape:connector-curvature="0" />
    <ellipse
       style="opacity:1;fill:#000000;fill-opacity:1;stroke:#000000;stroke-width:0.07740194;stroke-linecap:round;stroke-linejoin:round;stroke-miterlimit:4;stroke-dasharray:none;stroke-opacity:1"
       id="path3630"
       cx="30.025816"
       cy="1.5983449"
       rx="0.29471424"
       ry="0.32157373"
       transform="rotate(17.642684)" />
    <ellipse
       style="display:inline;opacity:1;fill:#000000;fill-opacity:1;stroke:#000000;stroke-width:0.04929952;stroke-linecap:round;stroke-linejoin:round;stroke-miterlimit:4;stroke-dasharray:none;stroke-opacity:1"
       id="path3630-5"
       cx="30.76997"
       cy="2.2437041"
       rx="0.18310888"
       ry="0.20996837"
       transform="rotate(17.642684)" />
    <rect
       style="opacity:1;fill:#e6e6e6;fill-opacity:1;stroke:#000000;stroke-width:0.09702063;stroke-linecap:round;stroke-linejoin:bevel;stroke-miterlimit:4;stroke-dasharray:none;stroke-opacity:1;paint-order:normal"
       id="rect3652"
       width="2.6665483"
       height="1.2095083"
       x="27.553108"
       y="5.2169466"
       transform="rotate(17.642684)" />
    <rect
       style="display:inline;opacity:1;fill:#e6e6e6;fill-opacity:1;stroke:#000000;stroke-width:0.09159897;stroke-linecap:round;stroke-linejoin:bevel;stroke-miterlimit:4;stroke-dasharray:none;stroke-opacity:1;paint-order:normal"
       id="rect3652-3"
       width="2.4047232"
       height="1.1954905"
       x="27.453163"
       y="14.546575"
       transform="matrix(0.97515112,0.22154074,-0.21783983,0.97598453,0,0)" />
    <rect
       style="display:inline;opacity:1;fill:#e6e6e6;fill-opacity:1;stroke:#000000;stroke-width:0.09702063;stroke-linecap:round;stroke-linejoin:bevel;stroke-miterlimit:4;stroke-dasharray:none;stroke-opacity:1;paint-order:normal"
       id="rect3652-0"
       width="2.6665483"
       height="1.2095083"
       x="27.292994"
       y="11.367704"
       transform="rotate(14.141543)" />
    <rect
       style="display:inline;opacity:1;fill:#e6e6e6;fill-opacity:1;stroke:#000000;stroke-width:0.09702063;stroke-linecap:round;stroke-linejoin:bevel;stroke-miterlimit:4;stroke-dasharray:none;stroke-opacity:1;paint-order:normal"
       id="rect3652-7"
       width="2.6665483"
       height="1.2095083"
       x="27.677505"
       y="7.4610376"
       transform="rotate(17.642684)" />
    <rect
       style="display:inline;opacity:1;fill:#e6e6e6;fill-opacity:1;stroke:#000000;stroke-width:0.07533051;stroke-linecap:round;stroke-linejoin:bevel;stroke-miterlimit:4;stroke-dasharray:none;stroke-opacity:1;paint-order:normal"
       id="rect3652-71"
       width="1.9422822"
       height="1.0010593"
       x="1.0947182"
       y="21.446999"
       transform="matrix(0.48105628,-0.87668972,0.89757026,0.44087144,0,0)" />
    <rect
       style="display:inline;opacity:1;fill:#e6e6e6;fill-opacity:1;stroke:#000000;stroke-width:0.06862631;stroke-linecap:round;stroke-linejoin:bevel;stroke-miterlimit:4;stroke-dasharray:none;stroke-opacity:1;paint-order:normal"
       id="rect3652-08"
       width="1.8918771"
       height="0.85294008"
       x="14.038278"
       y="16.813158"
       transform="matrix(0.92185767,-0.38752864,0.44443389,0.89581165,0,0)" />
    <rect
       style="display:inline;opacity:1;fill:#e6e6e6;fill-opacity:1;stroke:#000000;stroke-width:0.06814499;stroke-linecap:round;stroke-linejoin:bevel;stroke-miterlimit:4;stroke-dasharray:none;stroke-opacity:1;paint-order:normal"
       id="rect3652-8"
       width="1.9414843"
       height="0.81952876"
       x="22.69783"
       y="3.9494956"
       transform="rotate(17.642684)" />
    <rect
       style="display:inline;opacity:1;fill:#e6e6e6;fill-opacity:1;stroke:#000000;stroke-width:0.07065784;stroke-linecap:round;stroke-linejoin:bevel;stroke-miterlimit:4;stroke-dasharray:none;stroke-opacity:1;paint-order:normal"
       id="rect3652-84"
       width="1.8687105"
       height="0.91539496"
       x="13.31903"
       y="-15.611832"
       transform="matrix(0.33134768,0.94350873,-0.94356921,0.3311754,0,0)" />
    <rect
       style="display:inline;opacity:1;fill:#e6e6e6;fill-opacity:1;stroke:#000000;stroke-width:0.0604341;stroke-linecap:round;stroke-linejoin:bevel;stroke-miterlimit:4;stroke-dasharray:none;stroke-opacity:1;paint-order:normal"
       id="rect3652-713"
       width="1.0346305"
       height="1.2095083"
       x="19.649134"
       y="3.6658471"
       transform="rotate(17.642684)" />
    <path
       style="opacity:1;fill:#f9f9f9;fill-opacity:1;stroke:#1a1a1a;stroke-width:0.89574802;stroke-linecap:round;stroke-linejoin:bevel;stroke-miterlimit:4;stroke-dasharray:none;stroke-opacity:1;paint-order:normal"
       d="M 95.78622,44.8476 C 89.929304,38.929711 86.683287,34.252014 83.965526,27.813295 c -1.999844,-4.737882 -1.999753,-4.74186 0.12539,-5.478646 0.95776,-0.332055 3.522341,-0.978987 5.699069,-1.437626 5.156452,-1.086471 12.940275,-1.235663 15.989055,-0.306462 4.04143,1.231738 5.82937,3.060667 5.42543,5.549811 -0.30086,1.854026 -1.94746,4.789312 -4.13077,7.363687 -1.71855,2.026355 -2.26856,2.467319 -3.44787,2.764273 -1.73475,0.436815 -3.51637,2.29168 -4.028698,4.194313 -0.272839,1.013249 -0.264542,1.804974 0.03469,3.310428 0.276544,1.391289 0.301675,2.387625 0.08466,3.356264 l -0.308641,1.377587 z"
       id="path3984"
       inkscape:connector-curvature="0"
       transform="scale(0.26458333)" />
  </g>
</svg>
