<?xml version="1.0" encoding="UTF-8" standalone="no"?>
<!-- Created with Inkscape (http://www.inkscape.org/) -->

<svg
   xmlns:osb="http://www.openswatchbook.org/uri/2009/osb"
   xmlns:dc="http://purl.org/dc/elements/1.1/"
   xmlns:cc="http://creativecommons.org/ns#"
   xmlns:rdf="http://www.w3.org/1999/02/22-rdf-syntax-ns#"
   xmlns:svg="http://www.w3.org/2000/svg"
   xmlns="http://www.w3.org/2000/svg"
   xmlns:xlink="http://www.w3.org/1999/xlink"
   xmlns:sodipodi="http://sodipodi.sourceforge.net/DTD/sodipodi-0.dtd"
   xmlns:inkscape="http://www.inkscape.org/namespaces/inkscape"
   width="160"
   height="120"
   viewBox="0 0 42.333332 31.750001"
   version="1.1"
   id="svg3734"
   inkscape:version="0.92.3 (2405546, 2018-03-11)"
   sodipodi:docname="torso3.svg"
   inkscape:export-filename="C:\Program Files (x86)\Steam\steamapps\common\Don't Starve Together\mods\SE - Death The Kid\exported\deaththekid\torso\torso-1.png"
   inkscape:export-xdpi="96"
   inkscape:export-ydpi="96">
  <defs
     id="defs3728">
    <inkscape:path-effect
       effect="powerstroke"
       id="path-effect2903"
       is_visible="true"
       offset_points="0,0.13229166"
       sort_points="true"
       interpolator_type="CubicBezierJohan"
       interpolator_beta="0.2"
       start_linecap_type="zerowidth"
       linejoin_type="extrp_arc"
       miter_limit="4"
       end_linecap_type="zerowidth" />
    <inkscape:path-effect
       effect="powerstroke"
       id="path-effect2899"
       is_visible="true"
       offset_points="0,0.13229166"
       sort_points="true"
       interpolator_type="CubicBezierJohan"
       interpolator_beta="0.2"
       start_linecap_type="zerowidth"
       linejoin_type="extrp_arc"
       miter_limit="4"
       end_linecap_type="zerowidth" />
    <inkscape:path-effect
       effect="powerstroke"
       id="path-effect2895"
       is_visible="true"
       offset_points="0,0.13229166"
       sort_points="true"
       interpolator_type="CubicBezierJohan"
       interpolator_beta="0.2"
       start_linecap_type="zerowidth"
       linejoin_type="extrp_arc"
       miter_limit="4"
       end_linecap_type="zerowidth" />
    <linearGradient
       id="linearGradient4548"
       osb:paint="solid">
      <stop
         style="stop-color:#000000;stop-opacity:1;"
         offset="0"
         id="stop4546" />
    </linearGradient>
    <filter
       style="color-interpolation-filters:sRGB"
       id="filter947"
       inkscape:label="filter0">
      <feTurbulence
         id="feTurbulence951"
         baseFrequency="0.53100000000000003"
         result="result1"
         numOctaves="3.7966101694915255" />
      <feDisplacementMap
         id="feDisplacementMap953"
         numOctaves="4"
         scale="9"
         xChannelSelector="R"
         yChannelSelector="G" />
    </filter>
  </defs>
  <sodipodi:namedview
     id="base"
     pagecolor="#ffffff"
     bordercolor="#666666"
     borderopacity="1.0"
     inkscape:pageopacity="0"
     inkscape:pageshadow="2"
     inkscape:zoom="6.3168206"
     inkscape:cx="77.378678"
     inkscape:cy="63.334142"
     inkscape:document-units="mm"
     inkscape:current-layer="layer2"
     showgrid="false"
     units="px"
     inkscape:pagecheckerboard="true"
     borderlayer="false"
     inkscape:window-width="1366"
     inkscape:window-height="705"
     inkscape:window-x="-8"
     inkscape:window-y="-8"
     inkscape:window-maximized="1"
     inkscape:snap-smooth-nodes="false"
     inkscape:snap-midpoints="false"
     inkscape:snap-page="false"
     inkscape:snap-to-guides="true"
     inkscape:snap-grids="true" />
  <metadata
     id="metadata3731">
    <rdf:RDF>
      <cc:Work
         rdf:about="">
        <dc:format>image/svg+xml</dc:format>
        <dc:type
           rdf:resource="http://purl.org/dc/dcmitype/StillImage" />
        <dc:title></dc:title>
      </cc:Work>
    </rdf:RDF>
  </metadata>
  <g
     inkscape:label="Layer 1"
     inkscape:groupmode="layer"
     id="layer1"
     transform="translate(0,-265.24999)"
     style="display:none"
     sodipodi:insensitive="true">
    <image
       sodipodi:absref="C:\Program Files (x86)\Steam\steamapps\common\Don't Starve Together\mods\SE - Death The Kid\exported\deaththekid\torso\torso-2.png"
       y="265.31125"
       x="0.065646723"
       id="image2933"
       xlink:href="file:///C:/Program%20Files%20(x86)/Steam/steamapps/common/Don't%20Starve%20Together/mods/SE%20-%20Death%20The%20Kid/exported/deaththekid/torso/torso-2.png"
       preserveAspectRatio="none"
       height="31.75"
       width="42.333332"
       style="opacity:0.3" />
  </g>
  <g
     inkscape:groupmode="layer"
     id="layer2"
     inkscape:label="MyDrawing"
     style="display:inline">
    <path
       style="opacity:0.5;fill:none;fill-opacity:1;stroke:none;stroke-width:0.12664598;stroke-linecap:round;stroke-linejoin:round;stroke-miterlimit:4;stroke-dasharray:none;stroke-opacity:1"
       d="m 26.90692,26.517965 c 0.0023,-0.0083 0.03246,-0.32769 0.06705,-0.709657 0.239707,-2.647141 0.33535,-3.460296 0.620899,-5.27885 0.716313,-4.561933 1.297085,-8.753288 1.463585,-10.5625118 0.05146,-0.5592167 0.01365,-0.9072291 -0.09163,-0.8432313 -0.145092,0.088201 -1.395469,1.0267981 -2.132561,1.6008091 -1.210731,0.942859 -3.557208,2.910316 -3.582996,3.004243 -0.0038,0.01394 0.223391,0.09405 0.504925,0.178028 l 0.511881,0.152691 -0.13008,0.518088 -0.13008,0.518089 -1.456488,-0.399869 -1.456488,-0.399869 0.152691,-0.511881 0.152691,-0.511881 0.619023,0.157959 c 0.340462,0.08688 0.621905,0.147464 0.625426,0.134638 0.01092,-0.03978 -0.447709,-1.346773 -0.714647,-2.036582 C 21.417913,10.204554 20.839856,8.9169934 20.177209,7.6237523 19.8763,7.0364895 19.797542,6.9127211 19.758583,6.965879 c -0.02639,0.036012 -1.084832,2.6578398 -2.352085,5.826285 -2.586725,6.467443 -2.338199,5.908464 -3.987312,8.9683 -0.267721,0.496745 -0.482855,0.91003 -0.478071,0.918412 0.0048,0.0084 0.284793,-0.06491 0.622251,-0.162867 2.166627,-0.628941 4.543008,-0.74112 6.998043,-0.33035 1.069012,0.178864 2.809657,0.994584 3.943623,1.848104 0.791381,0.59566 1.603172,1.412769 2.159667,2.173813 0.130932,0.179059 0.239933,0.318735 0.242224,0.310391 z m -7.377129,-5.246007 0.138614,-0.504887 1.433879,0.393661 1.433879,0.393662 -0.138613,0.504887 -0.138614,0.504887 -1.433879,-0.393662 -1.433879,-0.393661 z m 0.474479,-2.519294 0.138613,-0.504887 1.433879,0.393662 1.433879,0.393661 -0.138613,0.504887 -0.138614,0.504887 -1.433879,-0.393661 -1.433879,-0.393662 z m 0.617828,-2.566809 0.138614,-0.504887 1.433879,0.393662 1.433879,0.393662 -0.138613,0.504887 -0.138614,0.504887 -1.433879,-0.393662 -1.433879,-0.393662 z"
       id="path4684"
       inkscape:connector-curvature="0"
       inkscape:export-filename="C:\Program Files (x86)\Steam\steamapps\common\Don't Starve Together\mods\SE - Death The Kid\exported\deaththekid\torso\torso-0.png"
       inkscape:export-xdpi="96"
       inkscape:export-ydpi="96" />
    <g
       id="g927"
       transform="matrix(-1,0,0,1,43.682873,0)"
       style="opacity:0.5" />
    <g
       id="g3089">
      <path
         style="fill:none;stroke:#000000;stroke-width:0.26458332px;stroke-linecap:butt;stroke-linejoin:miter;stroke-opacity:1;opacity:1"
         d="m 20.139925,6.8120336 c -0.02972,2.6862061 0.813666,5.0276654 2.459183,6.9740024"
         id="path3132"
         inkscape:connector-curvature="0" />
      <path
         style="fill:none;stroke:#000000;stroke-width:0.26458332px;stroke-linecap:butt;stroke-linejoin:miter;stroke-opacity:1;opacity:1"
         d="m 28.859122,6.995656 c -1.23636,2.5679932 -4.575957,5.302546 -7.139319,6.512562"
         id="path3134"
         inkscape:connector-curvature="0" />
      <rect
         inkscape:export-ydpi="96"
         inkscape:export-xdpi="96"
         inkscape:export-filename="C:\Program Files (x86)\Steam\steamapps\common\Don't Starve Together\mods\SE - Death The Kid\exported\deaththekid\torso\torso-0.png"
         transform="rotate(-168.35761)"
         y="-11.783308"
         x="-25.559326"
         height="0.96336699"
         width="2.890101"
         id="rect4619"
         style="opacity:1;fill:#e6e6e6;fill-opacity:1;stroke:#b9b9b9;stroke-width:0.065;stroke-linecap:round;stroke-linejoin:round;stroke-miterlimit:4;stroke-dasharray:none;stroke-opacity:1" />
      <rect
         transform="matrix(-0.99743394,-0.07159286,-0.06358161,0.99797664,0,0)"
         inkscape:export-ydpi="96"
         inkscape:export-xdpi="96"
         inkscape:export-filename="C:\Program Files (x86)\Steam\steamapps\common\Don't Starve Together\mods\SE - Death The Kid\exported\deaththekid\torso\torso-0.png"
         y="15.842338"
         x="-23.375519"
         height="0.95974636"
         width="2.7365007"
         id="rect4619-3"
         style="display:inline;opacity:1;fill:#e6e6e6;fill-opacity:1;stroke:#b9b9b9;stroke-width:0.06313017;stroke-linecap:round;stroke-linejoin:round;stroke-miterlimit:4;stroke-dasharray:none;stroke-opacity:1" />
      <rect
         transform="matrix(-0.99972145,-0.02360136,-0.02467812,0.99969545,0,0)"
         inkscape:export-ydpi="96"
         inkscape:export-xdpi="96"
         inkscape:export-filename="C:\Program Files (x86)\Steam\steamapps\common\Don't Starve Together\mods\SE - Death The Kid\exported\deaththekid\torso\torso-0.png"
         y="18.796509"
         x="-22.835493"
         height="0.95753592"
         width="2.9584925"
         id="rect4619-8"
         style="display:inline;opacity:1;fill:#e6e6e6;fill-opacity:1;stroke:#b9b9b9;stroke-width:0.06556525;stroke-linecap:round;stroke-linejoin:bevel;stroke-miterlimit:4;stroke-dasharray:none;stroke-opacity:1" />
      <rect
         transform="matrix(-0.99229261,0.12391679,0.12391679,0.99229261,0,0)"
         inkscape:export-ydpi="96"
         inkscape:export-xdpi="96"
         inkscape:export-filename="C:\Program Files (x86)\Steam\steamapps\common\Don't Starve Together\mods\SE - Death The Kid\exported\deaththekid\torso\torso-0.png"
         y="23.528076"
         x="-19.716293"
         height="0.95970905"
         width="2.9729779"
         id="rect4619-1"
         style="display:inline;opacity:1;fill:#ececec;fill-opacity:1;stroke:#b9b9b9;stroke-width:0.06580011;stroke-linecap:round;stroke-linejoin:round;stroke-miterlimit:4;stroke-dasharray:none;stroke-opacity:1" />
      <g
         inkscape:export-ydpi="96"
         inkscape:export-xdpi="96"
         inkscape:export-filename="C:\Program Files (x86)\Steam\steamapps\common\Don't Starve Together\mods\SE - Death The Kid\exported\deaththekid\torso\torso-0.png"
         transform="matrix(-0.96431794,-0.26474688,-0.23378891,0.85155615,45.428007,9.2639367)"
         id="g4617"
         style="opacity:1">
        <ellipse
           style="opacity:0;fill:#000000;stroke:#000000;stroke-width:0.80000001;stroke-linecap:round;stroke-linejoin:round;stroke-miterlimit:4;stroke-dasharray:none;stroke-opacity:1"
           id="path4542"
           cx="21.298788"
           cy="10.13707"
           rx="1.3612795"
           ry="1.2146802" />
        <g
           id="g4591"
           style="">
          <g
             id="g4585"
             style="">
            <g
               id="g4580"
               style="">
              <g
                 id="g4576"
                 style="">
                <ellipse
                   style="opacity:1;fill:#b9b9b9;fill-opacity:1;stroke:#010101;stroke-width:0.131;stroke-linecap:round;stroke-linejoin:round;stroke-miterlimit:4;stroke-dasharray:none;stroke-opacity:1"
                   id="path4544"
                   cx="21.26758"
                   cy="10.555925"
                   rx="1.3772912"
                   ry="1.3578926" />
              </g>
            </g>
          </g>
        </g>
        <ellipse
           style="opacity:1;fill:#000000;fill-opacity:1;stroke:#000000;stroke-width:0.16006321;stroke-linecap:round;stroke-linejoin:round;stroke-miterlimit:4;stroke-dasharray:none;stroke-opacity:1"
           id="path4552"
           cx="20.565792"
           cy="10.199899"
           rx="0.27808294"
           ry="0.29902557" />
        <ellipse
           style="opacity:1;fill:#000000;fill-opacity:1;stroke:#000000;stroke-width:0.16006321;stroke-linecap:round;stroke-linejoin:round;stroke-miterlimit:4;stroke-dasharray:none;stroke-opacity:1"
           id="path4552-6"
           cx="21.864243"
           cy="10.095184"
           rx="0.27808294"
           ry="0.29902557" />
        <ellipse
           style="opacity:1;fill:#000000;fill-opacity:1;stroke:#000000;stroke-width:0.10700262;stroke-linecap:round;stroke-linejoin:round;stroke-miterlimit:4;stroke-dasharray:none;stroke-opacity:1"
           id="path4552-7"
           cx="21.284788"
           cy="10.932895"
           rx="0.18589909"
           ry="0.19989929" />
        <path
           style="fill:#b9b9b9;fill-opacity:1;stroke:#000000;stroke-width:0.06333099;stroke-linecap:butt;stroke-linejoin:miter;stroke-miterlimit:4;stroke-dasharray:none;stroke-opacity:1"
           d="m 20.063165,11.225716 0.544512,2.186918 0.209428,-1.630248 0.46074,1.789297 0.460741,-1.829059 0.251313,1.789296 0.460741,-2.22668"
           id="path4603"
           inkscape:connector-curvature="0" />
      </g>
    </g>
    <path
       style="opacity:1;fill:none;stroke:#000000;stroke-width:0.80000001;stroke-linecap:round;stroke-linejoin:miter;stroke-miterlimit:4;stroke-dasharray:none;stroke-opacity:1"
       d="M 20.139925,6.8120336 C 15.896015,10.36379 14.786295,14.960772 13.268657,19.251399"
       id="path3052"
       inkscape:connector-curvature="0"
       sodipodi:nodetypes="cc" />
    <path
       style="opacity:1;fill:none;stroke:#000000;stroke-width:0.80000001;stroke-linecap:round;stroke-linejoin:miter;stroke-miterlimit:4;stroke-dasharray:none;stroke-opacity:1"
       d="m 28.859124,6.995656 c -1.237152,4.243553 -2.283299,9.028282 -1.801076,13.529023"
       id="path3054"
       inkscape:connector-curvature="0"
       sodipodi:nodetypes="cc" />
    <path
       style="opacity:1;fill:none;stroke:#000000;stroke-width:0.80000001;stroke-linecap:round;stroke-linejoin:miter;stroke-miterlimit:4;stroke-dasharray:none;stroke-opacity:1"
       d="m 13.268657,19.251399 c -0.783338,1.638353 -1.114803,3.975316 -2.336536,6.299544 3.945069,-2.172113 9.087863,-0.455556 10.471381,-2.806331"
       id="path3062"
       inkscape:connector-curvature="0"
       sodipodi:nodetypes="ccc" />
    <path
       style="opacity:1;fill:none;stroke:#000000;stroke-width:0.80000001;stroke-linecap:round;stroke-linejoin:miter;stroke-miterlimit:4;stroke-dasharray:none;stroke-opacity:1"
       d="m 21.403502,22.744612 c 3.291733,2.295048 5.270854,2.778707 6.994881,4.021011 -0.38137,-2.002553 -0.916662,-4.176614 -1.340335,-6.240944"
       id="path3064"
       inkscape:connector-curvature="0"
       sodipodi:nodetypes="ccc" />
    <path
       style="fill:none;stroke:#000000;stroke-width:0.8;stroke-linecap:round;stroke-linejoin:round;stroke-opacity:1;stroke-miterlimit:4;stroke-dasharray:none;opacity:1"
       d="M 20.139925,6.8120336 C 22.634436,5.5567304 26.874652,5.2001798 28.859122,6.995656"
       id="path3066"
       inkscape:connector-curvature="0" />
    <path
       style="opacity:1;fill:#e6e6e6;fill-opacity:1;stroke:#1a1a1a;stroke-width:0.47866201;stroke-linecap:round;stroke-linejoin:bevel;stroke-miterlimit:4;stroke-dasharray:none;stroke-opacity:1"
       d="m 89.02772,44.85692 c -0.936589,-1.052551 -2.045068,-1.660398 -3.51353,-1.926681 -1.456902,-0.264187 -3.109987,0.04824 -4.141484,0.782734 -0.247128,0.175971 -0.481424,0.319947 -0.520657,0.319947 -0.03923,0 -0.374987,-0.653555 -0.746121,-1.452346 -1.839025,-3.958128 -3.322765,-10.321091 -3.32752,-14.269941 l -0.0013,-1.078845 1.306036,-0.606919 c 4.922516,-2.287506 12.445662,-3.613965 18.012755,-3.175956 4.520111,0.355635 8.715871,1.641724 10.762401,3.298898 l 0.3709,0.300339 -0.37158,1.328971 c -0.27513,0.983998 -0.58701,1.637172 -1.2015,2.516278 -2.09577,2.998249 -6.068686,7.215109 -9.567953,10.155436 -1.79262,1.506285 -6.000919,4.728952 -6.165912,4.721785 -0.04663,-0.002 -0.449171,-0.41319 -0.894537,-0.9137 z"
       id="path3138"
       inkscape:connector-curvature="0"
       transform="scale(0.26458333)" />
    <path
       style="opacity:1;fill:#e6e6e6;fill-opacity:1;stroke:#1a1a1a;stroke-width:0.47866201;stroke-linecap:round;stroke-linejoin:bevel;stroke-miterlimit:4;stroke-dasharray:none;stroke-opacity:1"
       d="m 104.5442,97.472374 c -0.18196,-0.127452 -3.10236,-1.648833 -6.48978,-3.38085 -7.529451,-3.84987 -9.778568,-5.132194 -14.322232,-8.165752 -1.910587,-1.275594 -2.38401,-1.524442 -2.900181,-1.524442 -0.514222,0 -0.69876,0.09607 -1.109001,0.577327 -1.944022,2.280561 -3.174044,3.054892 -5.985647,3.768113 -2.142133,0.543397 -4.276973,0.815737 -9.308233,1.187448 -10.096569,0.745937 -13.636247,1.297331 -18.492512,2.880678 -0.549744,0.179239 -1.031951,0.293474 -1.071571,0.253853 -0.03962,-0.03962 0.239872,-0.883994 0.621095,-1.876386 0.773613,-2.013855 1.933934,-5.508852 3.50809,-10.566705 0.57856,-1.858946 1.445139,-4.352289 1.925731,-5.540762 0.480592,-1.188473 1.763343,-4.76106 2.850557,-7.939082 C 57.417302,56.48593 59.202055,51.946686 61.737062,46.884125 64.991177,40.385461 68.64574,35.228283 73.29274,30.577196 l 2.293851,-2.295871 0.113744,1.583075 c 0.333056,4.635413 1.573561,9.463787 3.474574,13.523955 l 0.772965,1.650894 -0.24876,0.651369 c -0.136818,0.358253 -0.240629,1.004499 -0.230692,1.436102 0.0099,0.431604 0.01175,2.768279 0.004,5.192614 -0.01064,3.340904 0.03153,4.392689 0.174215,4.345128 0.103541,-0.03451 0.622253,-1.039113 1.152693,-2.232443 l 0.964444,-2.16969 0.100228,0.990712 c 0.05512,0.544891 0.108553,1.796349 0.118731,2.781015 0.01018,0.984666 0.07866,1.753124 0.152179,1.707685 0.07352,-0.04544 0.729536,-1.055807 1.457808,-2.245261 0.72827,-1.189454 1.348371,-2.089915 1.378002,-2.001026 0.02963,0.08889 -0.05648,1.003046 -0.191347,2.031459 -0.295424,2.252651 -0.293206,2.120451 -0.03556,2.120451 0.115313,0 0.987983,-1.296942 1.939266,-2.882094 0.951284,-1.585152 2.008546,-3.205824 2.349472,-3.601495 0.863194,-1.001806 1.246543,-1.946864 1.274391,-3.141713 l 0.02325,-0.997545 2.603165,-1.952584 c 1.431741,-1.073921 3.244311,-2.500751 4.027933,-3.170733 1.983971,-1.696258 5.903018,-5.58977 7.300958,-7.253378 0.64267,-0.764814 1.16849,-1.313705 1.16849,-1.219759 0,0.09394 -0.28868,1.319074 -0.64153,2.722508 -3.76345,14.969141 -5.27182,29.082736 -4.26847,39.939616 0.18571,2.009593 0.0546,1.356196 2.5375,12.644904 1.05089,4.77797 1.88958,8.75062 1.86375,8.828115 -0.0258,0.07749 -0.19585,0.03662 -0.37781,-0.09083 z M 80.259874,83.442635 c 2.916816,-0.360007 5.320766,-0.67117 5.34211,-0.691472 0.06005,-0.05711 -0.446402,-3.796882 -0.524802,-3.875281 -0.101769,-0.101771 -11.205797,1.278788 -11.357943,1.412127 -0.112794,0.09885 0.0041,1.386431 0.305872,3.370542 0.08394,0.551795 0.127253,0.595884 0.511584,0.52074 0.230932,-0.04515 2.806364,-0.376647 5.723179,-0.736656 z m 4.43261,-8.598791 V 72.88512 L 80.69522,72.784615 c -2.198495,-0.05528 -4.780886,-0.11776 -5.738647,-0.13885 l -1.741382,-0.03834 -0.04428,2.014377 -0.04427,2.014376 2.498041,0.04794 c 1.373924,0.02637 3.976239,0.06381 5.782924,0.0832 l 3.28488,0.03526 z m -0.408843,-5.362995 c 0.03966,-0.195906 0.112615,-1.086385 0.162118,-1.978844 0.08178,-1.474297 0.06461,-1.62322 -0.187826,-1.628862 -0.152808,-0.0034 -2.521841,-0.172854 -5.264519,-0.376529 -2.742677,-0.203677 -5.035373,-0.325549 -5.094879,-0.270828 -0.05951,0.05472 -0.158648,0.972161 -0.220312,2.038758 l -0.112116,1.939267 0.695234,0.01059 c 0.382377,0.0058 2.333715,0.138975 4.336305,0.295886 2.002589,0.156913 4.084955,0.294623 4.627478,0.306022 0.903926,0.019 0.992434,-0.0091 1.058517,-0.335463 z m 1.516995,-6.200904 c 0,-0.03657 0.180922,-0.903289 0.402048,-1.926044 0.243722,-1.127261 0.342227,-1.895931 0.250143,-1.951931 -0.08355,-0.05081 -2.551146,-0.583846 -5.48355,-1.184531 -3.762399,-0.770703 -5.364009,-1.039786 -5.441606,-0.914232 -0.133976,0.216778 -0.856662,3.674939 -0.782321,3.743522 0.05819,0.05369 10.538769,2.258241 10.857402,2.28382 0.108836,0.0087 0.197884,-0.01404 0.197884,-0.0506 z"
       id="path3140"
       inkscape:connector-curvature="0"
       transform="scale(0.26458333)" />
    <path
       style="opacity:1;fill:#333333;fill-opacity:1;stroke:#333333;stroke-width:0.85795277;stroke-linecap:round;stroke-linejoin:bevel;stroke-miterlimit:4;stroke-dasharray:none;stroke-opacity:1;"
       d="m 98.290971,93.845592 c -7.564923,-3.950475 -9.741897,-5.180666 -13.376768,-7.559108 -4.25849,-2.786502 -4.097876,-2.765429 -6.132954,-0.804638 -2.095491,2.018997 -3.161578,2.560945 -6.278283,3.191576 -2.038887,0.412544 -3.363332,0.561296 -9.181993,1.031259 -8.953895,0.723188 -12.11957,1.191611 -16.147364,2.389308 -0.740087,0.220071 -1.463956,0.434244 -1.608598,0.475937 -0.217487,0.06269 -0.173808,-0.164909 0.252477,-1.31559 0.493625,-1.332457 1.820106,-5.312063 3.577031,-10.73154 0.451628,-1.393106 1.319408,-3.886449 1.928401,-5.540762 0.608994,-1.654313 2.103352,-5.857377 3.320797,-9.340142 3.586787,-10.260785 5.026048,-13.861071 7.509585,-18.785102 3.165618,-6.276371 6.372483,-10.835921 10.821164,-15.38563 l 2.298722,-2.350927 0.113556,1.005314 c 0.600818,5.31904 1.59065,9.164581 3.396356,13.19499 0.769797,1.718217 0.777386,1.750858 0.570562,2.453766 -0.285878,0.971572 -0.222653,10.808019 0.07136,11.101729 0.312506,0.312184 0.731993,-0.197829 1.404973,-1.708164 0.715584,-1.605948 0.827023,-1.504918 0.843522,0.764743 0.01263,1.736748 0.08413,2.031368 0.493027,2.031368 0.195756,0 0.609392,-0.5136 1.275379,-1.583603 0.542113,-0.870983 1.009709,-1.559556 1.039102,-1.530163 0.02939,0.02939 -0.02501,0.636389 -0.120897,1.34888 -0.195126,1.449903 -0.137558,1.764886 0.322566,1.764886 0.335647,0 0.852269,-0.709065 2.998898,-4.115994 0.630893,-1.001295 1.460456,-2.266468 1.843475,-2.811496 0.739755,-1.05266 0.956019,-1.646991 1.108333,-3.045882 l 0.0948,-0.870691 1.292234,-0.949845 c 3.897352,-2.864712 5.907288,-4.58773 9.264396,-7.941902 1.94259,-1.940888 3.49483,-3.405684 3.44942,-3.255101 -0.17245,0.571946 -1.3702,5.749663 -1.82219,7.877074 -2.07791,9.780355 -3.183082,20.266797 -2.969281,28.174205 0.156531,5.789292 0.120311,5.559572 2.870121,18.205361 1.77905,8.181458 1.70746,7.840221 1.64102,7.821611 -0.0287,-0.008 -2.80201,-1.450613 -6.162949,-3.205727 z M 80.336642,83.75379 c 2.7849,-0.356174 5.194549,-0.717748 5.354776,-0.803499 0.230322,-0.123266 0.273021,-0.277715 0.203918,-0.737627 -0.04807,-0.319943 -0.168039,-1.166422 -0.266593,-1.881064 -0.274083,-1.987446 -0.04084,-1.890497 -3.561415,-1.480335 -5.326803,0.620597 -8.508521,1.104274 -8.641545,1.313668 -0.204662,0.32216 0.244807,3.847593 0.535142,4.197429 0.119434,0.143908 0.368189,0.186431 0.74574,0.127477 0.311587,-0.04865 2.845078,-0.379876 5.629977,-0.736049 z m 4.593303,-8.930063 v -2.216305 l -3.641072,-0.118308 c -2.00259,-0.06507 -4.709648,-0.100688 -6.015685,-0.07915 l -2.374612,0.03915 v 2.216305 2.216305 l 2.849535,0.08628 c 1.567244,0.04745 4.274302,0.08307 6.015684,0.07915 l 3.16615,-0.0071 v -2.216305 z m -0.547079,-4.915964 c 0.117121,-0.141122 0.266789,-1.02595 0.351266,-2.076654 0.118564,-1.47468 0.105703,-1.87225 -0.06612,-2.044076 -0.151662,-0.151661 -1.506388,-0.306413 -4.687146,-0.535419 -5.430566,-0.390988 -6.30475,-0.403623 -6.424006,-0.09285 -0.04839,0.126094 -0.137559,1.121708 -0.198164,2.212479 -0.09039,1.626851 -0.07051,1.996694 0.110615,2.058212 0.267333,0.0908 8.374617,0.677472 9.739448,0.704785 0.702063,0.01406 1.026411,-0.04852 1.174109,-0.226481 z m 1.714953,-6.600906 c 0.245472,-0.667247 0.679926,-3.220585 0.626629,-3.68278 -0.04504,-0.390549 -0.155921,-0.490291 -0.72853,-0.655315 -1.254313,-0.361491 -8.656443,-1.813577 -9.715732,-1.905951 l -1.050999,-0.09165 -0.241739,1.090063 c -0.482576,2.176069 -0.604609,2.909023 -0.509864,3.062327 0.05312,0.08595 0.396343,0.237841 0.762711,0.337524 1.112402,0.302668 9.980801,2.17552 10.366375,2.189199 0.236054,0.0084 0.405253,-0.10993 0.491149,-0.343417 z"
       id="path3144"
       inkscape:connector-curvature="0"
       transform="scale(0.26458333)" />
  </g>
</svg>
